<svg width="48" height="48" viewBox="0 0 48 48" fill="none" xmlns="http://www.w3.org/2000/svg">
<path d="M44.4151 33.705L42.0001 34.74V34.065C42.0001 32.55 41.2501 31.14 39.9751 30.315C38.7151 29.475 37.1251 29.34 35.7301 29.94L24.0001 34.965L12.2701 29.94C10.8751 29.34 9.28514 29.49 8.02514 30.315C6.76515 31.155 6.00015 32.55 6.00015 34.065V34.74L3.58515 33.705C2.82015 33.375 1.93515 33.735 1.62015 34.5C1.29015 35.265 1.65015 36.15 2.41515 36.465L16.5001 42.495V42.75C16.5001 44.82 18.1801 46.5 20.2501 46.5H27.7501C29.8201 46.5 31.5001 44.82 31.5001 42.75V42.495L45.5851 36.465C46.3501 36.135 46.6951 35.265 46.3801 34.5C46.0501 33.735 45.1651 33.39 44.4151 33.705ZM22.5001 43.5H20.2501C19.8301 43.5 19.5001 43.17 19.5001 42.75V41.505C19.5001 40.905 19.1401 40.365 18.5851 40.125L9.00014 36.015V34.05C9.00014 33.54 9.24014 33.075 9.67514 32.805C10.1101 32.52 10.6201 32.475 11.0851 32.685L22.5001 37.575V43.5ZM39.0001 36.015L29.4151 40.125C28.8601 40.365 28.5001 40.905 28.5001 41.505V42.75C28.5001 43.17 28.1701 43.5 27.7501 43.5H25.5001V37.575L36.9151 32.685C37.3801 32.475 37.9051 32.535 38.3401 32.805C38.7751 33.09 39.0151 33.54 39.0151 34.05V36.015H39.0001Z" fill="url(#paint0_linear_11815_31092)"/>
<path d="M4.49707 23.34C4.49707 24.165 3.82207 24.84 2.99707 24.84C2.17207 24.84 1.49707 24.165 1.49707 23.34V17.67C1.49707 15.6 3.17707 13.92 5.24707 13.92H8.87707C9.70207 13.92 10.3771 14.595 10.3771 15.42C10.3771 16.245 9.70207 16.92 8.87707 16.92H5.24707C4.82707 16.92 4.49707 17.25 4.49707 17.67V23.34Z" fill="url(#paint1_linear_11815_31092)"/>
<path d="M8.87707 12.045H2.99707C2.17207 12.045 1.49707 11.37 1.49707 10.545C1.49707 9.72 2.17207 9.045 2.99707 9.045H8.87707C9.70207 9.045 10.3771 9.72 10.3771 10.545C10.3771 11.37 9.70207 12.045 8.87707 12.045Z" fill="url(#paint2_linear_11815_31092)"/>
<path d="M11.0971 7.17H5.24707C3.17707 7.17 1.49707 5.49 1.49707 3.42V3C1.49707 2.175 2.17207 1.5 2.99707 1.5C3.82207 1.5 4.49707 2.175 4.49707 3V3.42C4.49707 3.84 4.82707 4.17 5.24707 4.17H11.0971C11.9221 4.17 12.5971 4.845 12.5971 5.67C12.5971 6.495 11.9221 7.17 11.0971 7.17Z" fill="url(#paint3_linear_11815_31092)"/>
<path d="M39.1194 13.92H42.7494C44.8194 13.92 46.4994 15.6 46.4994 17.67V23.34C46.4994 24.165 45.8244 24.84 44.9994 24.84C44.1744 24.84 43.4994 24.165 43.4994 23.34V17.67C43.4994 17.25 43.1694 16.92 42.7494 16.92H39.1194C38.2944 16.92 37.6194 16.245 37.6194 15.42C37.6194 14.595 38.2944 13.92 39.1194 13.92Z" fill="url(#paint4_linear_11815_31092)"/>
<path d="M39.1194 9.045H44.9994C45.8244 9.045 46.4994 9.72 46.4994 10.545C46.4994 11.37 45.8244 12.045 44.9994 12.045H39.1194C38.2944 12.045 37.6194 11.37 37.6194 10.545C37.6194 9.72 38.2944 9.045 39.1194 9.045Z" fill="url(#paint5_linear_11815_31092)"/>
<path d="M43.4994 3C43.4994 2.175 44.1744 1.5 44.9994 1.5C45.8244 1.5 46.4994 2.175 46.4994 3V3.42C46.4994 5.49 44.8194 7.17 42.7494 7.17H36.8994C36.0744 7.17 35.3994 6.495 35.3994 5.67C35.3994 4.845 36.0744 4.17 36.8994 4.17H42.7494C43.1694 4.17 43.4994 3.84 43.4994 3.42V3Z" fill="url(#paint6_linear_11815_31092)"/>
<path d="M21.315 13.71H20.88C20.115 13.71 19.5 14.325 19.5 15.09V17.91H22.68V15.09C22.68 14.325 22.065 13.71 21.3 13.71H21.315Z" fill="url(#paint7_linear_11815_31092)"/>
<path d="M31.5 7.5H16.5C14.43 7.5 12.75 9.18 12.75 11.25V24.75C12.75 26.82 14.43 28.5 16.5 28.5H31.5C33.57 28.5 35.25 26.82 35.25 24.75V11.25C35.25 9.18 33.57 7.5 31.5 7.5ZM25.68 23.79C25.68 24.615 25.005 25.29 24.18 25.29C23.355 25.29 22.68 24.615 22.68 23.79V20.91H19.5V23.535C19.5 24.36 18.825 25.035 18 25.035C17.175 25.035 16.5 24.36 16.5 23.535V15.09C16.5 12.675 18.465 10.71 20.88 10.71H21.315C23.73 10.71 25.695 12.675 25.695 15.09V23.79H25.68ZM31.5 23.535C31.5 24.36 30.825 25.035 30 25.035C29.175 25.035 28.5 24.36 28.5 23.535V12.21C28.5 11.385 29.175 10.71 30 10.71C30.825 10.71 31.5 11.385 31.5 12.21V23.535Z" fill="url(#paint8_linear_11815_31092)"/>
<path d="M25.5 36L38.25 32.25L40.5 36L33 40.5L25.5 45V36Z" fill="url(#paint9_linear_11815_31092)"/>
<path d="M22.5 36L9.75 32.25L7.5 36L15 40.5L22.5 45V36Z" fill="url(#paint10_linear_11815_31092)"/>
<defs>
<linearGradient id="paint0_linear_11815_31092" x1="24.0002" y1="46.4946" x2="24.0002" y2="29.5662" gradientUnits="userSpaceOnUse">
<stop stop-color="#065CFB"/>
<stop offset="1" stop-color="#09A5F9"/>
</linearGradient>
<linearGradient id="paint1_linear_11815_31092" x1="7.05579" y1="28.7156" x2="7.05579" y2="1.51183" gradientUnits="userSpaceOnUse">
<stop stop-color="#F69D2E"/>
<stop offset="1" stop-color="#F5DE0E"/>
</linearGradient>
<linearGradient id="paint2_linear_11815_31092" x1="7.05579" y1="28.7156" x2="7.05579" y2="1.51183" gradientUnits="userSpaceOnUse">
<stop stop-color="#F69D2E"/>
<stop offset="1" stop-color="#F5DE0E"/>
</linearGradient>
<linearGradient id="paint3_linear_11815_31092" x1="7.05579" y1="28.7156" x2="7.05579" y2="1.51183" gradientUnits="userSpaceOnUse">
<stop stop-color="#F69D2E"/>
<stop offset="1" stop-color="#F5DE0E"/>
</linearGradient>
<linearGradient id="paint4_linear_11815_31092" x1="40.9581" y1="28.7156" x2="40.9581" y2="1.51183" gradientUnits="userSpaceOnUse">
<stop stop-color="#F69D2E"/>
<stop offset="1" stop-color="#F5DE0E"/>
</linearGradient>
<linearGradient id="paint5_linear_11815_31092" x1="40.9581" y1="28.7156" x2="40.9581" y2="1.51183" gradientUnits="userSpaceOnUse">
<stop stop-color="#F69D2E"/>
<stop offset="1" stop-color="#F5DE0E"/>
</linearGradient>
<linearGradient id="paint6_linear_11815_31092" x1="40.9581" y1="28.7156" x2="40.9581" y2="1.51183" gradientUnits="userSpaceOnUse">
<stop stop-color="#F69D2E"/>
<stop offset="1" stop-color="#F5DE0E"/>
</linearGradient>
<linearGradient id="paint7_linear_11815_31092" x1="21.0856" y1="17.9049" x2="21.0856" y2="13.7075" gradientUnits="userSpaceOnUse">
<stop stop-color="#DE174E"/>
<stop offset="1" stop-color="#FB4F60"/>
</linearGradient>
<linearGradient id="paint8_linear_11815_31092" x1="23.9691" y1="28.4747" x2="23.9691" y2="7.48735" gradientUnits="userSpaceOnUse">
<stop stop-color="#DE174E"/>
<stop offset="1" stop-color="#FB4F60"/>
</linearGradient>
<linearGradient id="paint9_linear_11815_31092" x1="33.0011" y1="44.9959" x2="33.0011" y2="32.2467" gradientUnits="userSpaceOnUse">
<stop stop-color="#065CFB"/>
<stop offset="1" stop-color="#09A5F9"/>
</linearGradient>
<linearGradient id="paint10_linear_11815_31092" x1="14.9989" y1="44.9959" x2="14.9989" y2="32.2467" gradientUnits="userSpaceOnUse">
<stop stop-color="#065CFB"/>
<stop offset="1" stop-color="#09A5F9"/>
</linearGradient>
</defs>
</svg>
